# xmcd
#
# Track frame offsets:
#	150
#	17068
#	38291
#	66909
#	85699
#	107016
#
# Disc length: 1689 seconds
#
# Revision: 0
# Processed by: cddbd v1.5.2PL0 Copyright (c) Steve Scherf et al.
# Submitted via: audiograbber 1.83.01
#
DISCID=3b069706
DTITLE=Pawn Shop Diamonds - Pawn Shop Diamonds
DYEAR=2009
DGENRE=Rock
TTITLE0=Motorcade
TTITLE1=High Road Low Down
TTITLE2=The Kiss
TTITLE3=By the Roadside
TTITLE4=Rollin' On
TTITLE5=Wasted In Tennessee
EXTD=
EXTT0=
EXTT1=
EXTT2=
EXTT3=
EXTT4=
EXTT5=
PLAYORDER=
